<svg width="24" height="24" viewBox="0 0 24 24" fill="none" xmlns="http://www.w3.org/2000/svg">
<g clip-path="url(#clip0_396_290)">
<path d="M15.0704 11.4016L5.58203 9.60156V22.9018C5.58203 23.5092 6.04007 24.0016 6.6051 24.0016H22.9776C23.5426 24.0016 24.0006 23.5092 24.0006 22.9018V18.0016L15.0704 11.4016Z" fill="#185C37"/>
<path d="M15.0704 0H6.6051C6.04007 0 5.58203 0.492394 5.58203 1.0998V6L15.0704 12L20.0937 13.8L24.0006 12V6L15.0704 0Z" fill="#21A366"/>
<path d="M5.58203 6H15.0704V12H5.58203V6Z" fill="#107C41"/>
<path opacity="0.1" d="M12.3729 4.80078H5.58203V19.8008H12.3729C12.9372 19.7988 13.3942 19.3076 13.396 18.701V5.90058C13.3942 5.294 12.9372 4.80275 12.3729 4.80078Z" fill="black"/>
<path opacity="0.2" d="M11.8148 5.39844H5.58203V20.3984H11.8148C12.379 20.3965 12.836 19.9052 12.8378 19.2986V6.49823C12.836 5.89165 12.379 5.40041 11.8148 5.39844Z" fill="black"/>
<path opacity="0.2" d="M11.8148 5.39844H5.58203V19.1984H11.8148C12.379 19.1965 12.836 18.7052 12.8378 18.0986V6.49823C12.836 5.89165 12.379 5.40041 11.8148 5.39844Z" fill="black"/>
<path opacity="0.2" d="M11.2566 5.39844H5.58203V19.1984H11.2566C11.8209 19.1965 12.2779 18.7052 12.2797 18.0986V6.49823C12.2779 5.89165 11.8209 5.40041 11.2566 5.39844Z" fill="black"/>
<path d="M1.02307 5.39844H11.256C11.821 5.39844 12.2791 5.89083 12.2791 6.49823V17.4986C12.2791 18.106 11.821 18.5984 11.256 18.5984H1.02307C0.458041 18.5984 0 18.106 0 17.4986V6.49823C0 5.89083 0.458041 5.39844 1.02307 5.39844Z" fill="url(#paint0_linear_396_290)"/>
<path d="M3.16797 15.576L5.32015 11.991L3.34825 8.42578H4.93448L6.01057 10.7058C6.10993 10.9224 6.17801 11.0832 6.21486 11.1894H6.22881C6.2995 11.0166 6.37392 10.8488 6.45206 10.686L7.60238 8.42699H9.05857L7.03643 11.9712L9.10993 15.576H7.56053L6.31755 13.0734C6.259 12.9669 6.20932 12.8551 6.16909 12.7392H6.15068C6.11426 12.8527 6.06596 12.9614 6.00667 13.0632L4.72686 15.576H3.16797Z" fill="white"/>
<path d="M22.9775 0H15.0703V6H24.0005V1.0998C24.0005 0.492394 23.5425 0 22.9775 0Z" fill="#33C481"/>
<path d="M15.0703 12H24.0005V18H15.0703V12Z" fill="#107C41"/>
</g>
<defs>
<linearGradient id="paint0_linear_396_290" x1="2.13312" y1="4.53908" x2="11.0461" y2="18.8991" gradientUnits="userSpaceOnUse">
<stop stop-color="#18884F"/>
<stop offset="0.5" stop-color="#117E43"/>
<stop offset="1" stop-color="#0B6631"/>
</linearGradient>
<clipPath id="clip0_396_290">
<rect width="24" height="24" fill="white"/>
</clipPath>
</defs>
</svg>
