<svg width="24" height="36" viewBox="0 0 24 36" fill="none" xmlns="http://www.w3.org/2000/svg">
<g clip-path="url(#clip0_397_410)">
<path d="M6.00075 36C9.31209 36 11.9996 33.312 11.9996 30V24H6.00075C2.68942 24 0.00195312 26.688 0.00195312 30C0.00195312 33.312 2.68942 36 6.00075 36Z" fill="#0ACF83"/>
<path d="M0.00195312 18C0.00195312 14.688 2.68942 12 6.00075 12H11.9996V24H6.00075C2.68942 24 0.00195312 21.312 0.00195312 18Z" fill="#A259FF"/>
<path d="M0.00195312 6C0.00195312 2.688 2.68942 0 6.00075 0H11.9996V12H6.00075C2.68942 12 0.00195312 9.312 0.00195312 6Z" fill="#F24E1E"/>
<path d="M12 0H17.9988C21.3101 0 23.9976 2.688 23.9976 6C23.9976 9.312 21.3101 12 17.9988 12H12V0Z" fill="#FF7262"/>
<path d="M23.9976 18C23.9976 21.312 21.3101 24 17.9988 24C14.6875 24 12 21.312 12 18C12 14.688 14.6875 12 17.9988 12C21.3101 12 23.9976 14.688 23.9976 18Z" fill="#1ABCFE"/>
</g>
<defs>
<clipPath id="clip0_397_410">
<rect width="24" height="36" fill="white"/>
</clipPath>
</defs>
</svg>
