<svg width="24" height="33" viewBox="0 0 24 33" fill="none" xmlns="http://www.w3.org/2000/svg">
<g clip-path="url(#clip0_397_396)">
<mask id="mask0_397_396" style="mask-type:luminance" maskUnits="userSpaceOnUse" x="0" y="0" width="24" height="33">
<path d="M14.898 0.472656H2.58167C1.38626 0.472656 0.408203 1.45619 0.408203 2.65829V30.343C0.408203 31.5451 1.38626 32.5286 2.58167 32.5286H21.4184C22.6138 32.5286 23.5919 31.5451 23.5919 30.343V9.21519L14.898 0.472656Z" fill="white"/>
</mask>
<g mask="url(#mask0_397_396)">
<path d="M14.898 0.472656H2.58167C1.38626 0.472656 0.408203 1.45619 0.408203 2.65829V30.343C0.408203 31.5451 1.38626 32.5286 2.58167 32.5286H21.4184C22.6138 32.5286 23.5919 31.5451 23.5919 30.343V9.21519L18.5204 5.57247L14.898 0.472656Z" fill="#0F9D58"/>
</g>
<mask id="mask1_397_396" style="mask-type:luminance" maskUnits="userSpaceOnUse" x="0" y="0" width="24" height="33">
<path d="M14.898 0.472656H2.58167C1.38626 0.472656 0.408203 1.45619 0.408203 2.65829V30.343C0.408203 31.5451 1.38626 32.5286 2.58167 32.5286H21.4184C22.6138 32.5286 23.5919 31.5451 23.5919 30.343V9.21519L14.898 0.472656Z" fill="white"/>
</mask>
<g mask="url(#mask1_397_396)">
<path d="M6.20508 16.1367V26.7006H17.7969V16.1367H6.20508ZM11.2765 25.2435H7.65406V23.4222H11.2765V25.2435ZM11.2765 22.3293H7.65406V20.508H11.2765V22.3293ZM11.2765 19.4152H7.65406V17.5938H11.2765V19.4152ZM16.3479 25.2435H12.7255V23.4222H16.3479V25.2435ZM16.3479 22.3293H12.7255V20.508H16.3479V22.3293ZM16.3479 19.4152H12.7255V17.5938H16.3479V19.4152Z" fill="#F1F1F1"/>
</g>
<mask id="mask2_397_396" style="mask-type:luminance" maskUnits="userSpaceOnUse" x="0" y="0" width="24" height="33">
<path d="M14.898 0.472656H2.58167C1.38626 0.472656 0.408203 1.45619 0.408203 2.65829V30.343C0.408203 31.5451 1.38626 32.5286 2.58167 32.5286H21.4184C22.6138 32.5286 23.5919 31.5451 23.5919 30.343V9.21519L14.898 0.472656Z" fill="white"/>
</mask>
<g mask="url(#mask2_397_396)">
<path d="M15.5332 8.57422L23.5913 16.6756V9.21352L15.5332 8.57422Z" fill="url(#paint0_linear_397_396)"/>
</g>
<mask id="mask3_397_396" style="mask-type:luminance" maskUnits="userSpaceOnUse" x="0" y="0" width="24" height="33">
<path d="M14.898 0.472656H2.58167C1.38626 0.472656 0.408203 1.45619 0.408203 2.65829V30.343C0.408203 31.5451 1.38626 32.5286 2.58167 32.5286H21.4184C22.6138 32.5286 23.5919 31.5451 23.5919 30.343V9.21519L14.898 0.472656Z" fill="white"/>
</mask>
<g mask="url(#mask3_397_396)">
<path d="M14.8984 0.472656V7.02956C14.8984 8.23712 15.8711 9.21519 17.0719 9.21519H23.5923L14.8984 0.472656Z" fill="#87CEAC"/>
</g>
<mask id="mask4_397_396" style="mask-type:luminance" maskUnits="userSpaceOnUse" x="0" y="0" width="24" height="33">
<path d="M14.898 0.472656H2.58167C1.38626 0.472656 0.408203 1.45619 0.408203 2.65829V30.343C0.408203 31.5451 1.38626 32.5286 2.58167 32.5286H21.4184C22.6138 32.5286 23.5919 31.5451 23.5919 30.343V9.21519L14.898 0.472656Z" fill="white"/>
</mask>
<g mask="url(#mask4_397_396)">
<path d="M2.58167 0.472656C1.38626 0.472656 0.408203 1.45619 0.408203 2.65829V2.84043C0.408203 1.63833 1.38626 0.654792 2.58167 0.654792H14.898V0.472656H2.58167Z" fill="white" fill-opacity="0.2"/>
</g>
<mask id="mask5_397_396" style="mask-type:luminance" maskUnits="userSpaceOnUse" x="0" y="0" width="24" height="33">
<path d="M14.898 0.472656H2.58167C1.38626 0.472656 0.408203 1.45619 0.408203 2.65829V30.343C0.408203 31.5451 1.38626 32.5286 2.58167 32.5286H21.4184C22.6138 32.5286 23.5919 31.5451 23.5919 30.343V9.21519L14.898 0.472656Z" fill="white"/>
</mask>
<g mask="url(#mask5_397_396)">
<path d="M21.4184 32.3458H2.58167C1.38626 32.3458 0.408203 31.3623 0.408203 30.1602V30.3423C0.408203 31.5444 1.38626 32.5279 2.58167 32.5279H21.4184C22.6138 32.5279 23.5919 31.5444 23.5919 30.3423V30.1602C23.5919 31.3623 22.6138 32.3458 21.4184 32.3458Z" fill="#263238" fill-opacity="0.2"/>
</g>
<mask id="mask6_397_396" style="mask-type:luminance" maskUnits="userSpaceOnUse" x="0" y="0" width="24" height="33">
<path d="M14.898 0.472656H2.58167C1.38626 0.472656 0.408203 1.45619 0.408203 2.65829V30.343C0.408203 31.5451 1.38626 32.5286 2.58167 32.5286H21.4184C22.6138 32.5286 23.5919 31.5451 23.5919 30.343V9.21519L14.898 0.472656Z" fill="white"/>
</mask>
<g mask="url(#mask6_397_396)">
<path d="M17.0719 9.21688C15.8711 9.21688 14.8984 8.23881 14.8984 7.03125V7.21339C14.8984 8.42095 15.8711 9.39902 17.0719 9.39902H23.5923V9.21688H17.0719Z" fill="#263238" fill-opacity="0.1"/>
</g>
<path d="M14.898 0.472656H2.58167C1.38626 0.472656 0.408203 1.45619 0.408203 2.65829V30.343C0.408203 31.5451 1.38626 32.5286 2.58167 32.5286H21.4184C22.6138 32.5286 23.5919 31.5451 23.5919 30.343V9.21519L14.898 0.472656Z" fill="url(#paint1_radial_397_396)"/>
</g>
<defs>
<linearGradient id="paint0_linear_397_396" x1="418.484" y1="78.1339" x2="418.484" y2="818.829" gradientUnits="userSpaceOnUse">
<stop stop-color="#263238" stop-opacity="0.2"/>
<stop offset="1" stop-color="#263238" stop-opacity="0.02"/>
</linearGradient>
<radialGradient id="paint1_radial_397_396" cx="0" cy="0" r="1" gradientUnits="userSpaceOnUse" gradientTransform="translate(73.8552 63.8294) scale(3738.33 3759.26)">
<stop stop-color="white" stop-opacity="0.1"/>
<stop offset="1" stop-color="white" stop-opacity="0"/>
</radialGradient>
<clipPath id="clip0_397_396">
<rect width="24" height="33" fill="white"/>
</clipPath>
</defs>
</svg>
