<svg width="24" height="24" viewBox="0 0 24 24" fill="none" xmlns="http://www.w3.org/2000/svg">
<path d="M11.9497 1.86652e-06C11.1751 0.000341654 10.4637 0.427705 10.0996 1.11148C9.73549 1.79525 9.77799 2.62404 10.2101 3.26698L11.1058 2.37254C11.0762 2.28332 11.0613 2.18988 11.0616 2.09587C11.0616 1.60747 11.4575 1.21154 11.9459 1.21154C12.4343 1.21154 12.8303 1.60747 12.8303 2.09587C12.8303 2.58427 12.4343 2.9802 11.9459 2.9802C11.8524 2.98041 11.7594 2.96548 11.6705 2.93599L10.7761 3.83043C11.521 4.3356 12.5052 4.30884 13.2215 3.76393C13.9378 3.21903 14.2262 2.27764 13.9381 1.42499C13.65 0.572339 12.8497 -0.00119399 11.9497 1.86652e-06Z" fill="#34A853"/>
<path d="M11.1162 6.10775C11.1176 5.39976 10.8883 4.71059 10.463 4.14453L9.30078 5.30553C9.66426 5.97035 9.53346 6.7967 8.98242 7.31676L9.61409 8.86055C10.55 8.25779 11.1158 7.22097 11.1162 6.10775Z" fill="#FBBC04"/>
<path d="M7.86906 7.77545H7.83874C7.12584 7.77552 6.49175 7.3224 6.26087 6.64792C6.02999 5.97344 6.2534 5.2268 6.81679 4.78998C7.38019 4.35316 8.15895 4.32279 8.75465 4.7144L9.90555 3.56351C8.78644 2.65623 7.20605 2.58625 6.01112 3.39105C4.8162 4.19584 4.28702 5.68665 4.70712 7.06472C5.12723 8.44278 6.39806 9.38486 7.83874 9.3862C8.06103 9.38631 8.28279 9.36431 8.50072 9.32051L7.86906 7.77545Z" fill="#EA4335"/>
<path d="M11.9943 9.11064C11.2669 9.1099 10.5433 9.21589 9.84667 9.42521L10.7676 11.6752C11.1685 11.5759 11.58 11.5258 11.9931 11.5261C14.3863 11.5268 16.4458 13.2179 16.9121 15.5652C17.3785 17.9126 16.1218 20.2625 13.9107 21.1779C11.6995 22.0934 9.14952 21.3196 7.82012 19.3295C6.49071 17.3395 6.75206 14.6876 8.44437 12.9954C8.79749 12.6434 9.20062 12.3454 9.64074 12.1111L8.72988 9.86737C5.3346 11.5302 3.72705 15.4756 4.99342 19.0378C6.2598 22.6 9.9971 24.6454 13.6801 23.7918C17.3631 22.9383 19.8197 19.4575 19.3901 15.7014C18.9604 11.9453 15.7812 9.10919 12.0006 9.10938L11.9943 9.11064Z" fill="#4285F4"/>
</svg>
