<svg width="24" height="24" viewBox="0 0 24 24" fill="none" xmlns="http://www.w3.org/2000/svg">
<g clip-path="url(#clip0_392_157)">
<g clip-path="url(#clip1_392_157)">
<mask id="mask0_392_157" style="mask-type:luminance" maskUnits="userSpaceOnUse" x="16" y="0" width="6" height="5">
<path d="M16.3086 0H21.5101V4.8146H16.3086V0Z" fill="white"/>
</mask>
<g mask="url(#mask0_392_157)">
<mask id="mask1_392_157" style="mask-type:luminance" maskUnits="userSpaceOnUse" x="16" y="0" width="6" height="5">
<path fill-rule="evenodd" clip-rule="evenodd" d="M21.0289 4.81093C21.0277 4.81093 21.0256 4.81093 21.0234 4.81093H17.8708C17.0092 4.81093 16.3086 4.16137 16.3086 3.36257V5.39826e-05H16.7761C16.9014 -0.00176147 17.0255 0.042235 17.1187 0.128866L21.3184 4.02223C21.4308 4.10262 21.5038 4.22905 21.5038 4.37108C21.5038 4.39483 21.5018 4.41823 21.4979 4.44086V4.81093H21.0289Z" fill="white"/>
</mask>
<g mask="url(#mask1_392_157)">
<path d="M16.3086 4.81097H21.5038V0H16.3086V4.81097Z" fill="url(#paint0_linear_392_157)"/>
</g>
</g>
<mask id="mask2_392_157" style="mask-type:luminance" maskUnits="userSpaceOnUse" x="0" y="14" width="24" height="10">
<path d="M0 14.6465H24V23.9994H0V14.6465Z" fill="white"/>
</mask>
<g mask="url(#mask2_392_157)">
<mask id="mask3_392_157" style="mask-type:luminance" maskUnits="userSpaceOnUse" x="0" y="14" width="24" height="10">
<path fill-rule="evenodd" clip-rule="evenodd" d="M21.8301 23.9997H2.17017C0.973501 23.9997 0 23.0971 0 21.9878V16.6639C0 15.5549 0.973623 14.6523 2.17017 14.6523H21.8301C23.0266 14.6523 24 15.5549 24 16.6639V21.9878C24 23.0973 23.0266 23.9997 21.8301 23.9997Z" fill="white"/>
</mask>
<g mask="url(#mask3_392_157)">
<path d="M0 23.9997H24V14.6523H0V23.9997Z" fill="url(#paint1_linear_392_157)"/>
</g>
</g>
<mask id="mask4_392_157" style="mask-type:luminance" maskUnits="userSpaceOnUse" x="5" y="2" width="14" height="11">
<path d="M5.59375 2.17773H18.4094V12.9906H5.59375V2.17773Z" fill="white"/>
</mask>
<g mask="url(#mask4_392_157)">
<mask id="mask5_392_157" style="mask-type:luminance" maskUnits="userSpaceOnUse" x="5" y="2" width="14" height="11">
<path fill-rule="evenodd" clip-rule="evenodd" d="M11.5363 5.89771C11.4712 5.89771 11.5084 5.90199 11.4468 5.88687C11.2639 5.8418 11.1541 5.6651 11.2031 5.49576L12.0823 2.45401C12.1314 2.28458 12.3215 2.18263 12.5044 2.22816C12.6869 2.27369 12.7968 2.45001 12.748 2.61922L11.8688 5.66096C11.8285 5.80038 11.692 5.89771 11.5363 5.89771ZM9.0195 4.01383L10.4056 5.29875C10.5402 5.42337 10.5403 5.62576 10.4056 5.75037C10.3408 5.81034 10.2536 5.84376 10.162 5.84376C10.0702 5.84376 9.98318 5.81034 9.9184 5.75029L8.28863 4.23946C8.22409 4.17969 8.1878 4.09822 8.1878 4.01363C8.1878 3.92887 8.22409 3.84769 8.28863 3.78786L9.9184 2.27723C10.053 2.15233 10.2711 2.15248 10.4056 2.27709C10.5403 2.40185 10.5402 2.60433 10.4056 2.72894L9.0195 4.01383ZM14.9316 4.01383L13.5455 2.72908C13.4109 2.60433 13.4112 2.40207 13.5455 2.27732C13.6798 2.15256 13.8981 2.15265 14.0325 2.27732L15.6623 3.78792C15.7268 3.84783 15.7631 3.9291 15.7631 4.01363C15.7631 4.09822 15.7268 4.17969 15.6623 4.23946L14.0325 5.75029C13.9679 5.81028 13.8807 5.84376 13.7891 5.84376C13.6975 5.84376 13.6103 5.81034 13.5455 5.75029C13.4109 5.62568 13.4109 5.42322 13.5455 5.29847L14.9316 4.01383ZM18.0574 8.08242H5.94218C5.75194 8.08242 5.59766 7.93945 5.59766 7.76307C5.59766 7.58665 5.75194 7.4436 5.94218 7.4436H18.0574C18.2475 7.4436 18.4018 7.58665 18.4018 7.76307C18.4018 7.93945 18.2475 8.08242 18.0574 8.08242ZM18.0574 10.5358H5.94218C5.75194 10.5358 5.59766 10.3928 5.59766 10.2165C5.59766 10.0401 5.75194 9.89708 5.94218 9.89708H18.0574C18.2475 9.89708 18.4018 10.0401 18.4018 10.2165C18.4018 10.3928 18.2475 10.5358 18.0574 10.5358ZM18.0574 12.9887H5.94218C5.75194 12.9887 5.59766 12.8458 5.59766 12.6694C5.59766 12.493 5.75194 12.3499 5.94218 12.3499H18.0574C18.2475 12.3499 18.4018 12.493 18.4018 12.6694C18.4018 12.8458 18.2475 12.9887 18.0574 12.9887Z" fill="white"/>
</mask>
<g mask="url(#mask5_392_157)">
<path d="M5.59766 12.9887H18.4018V2.15234H5.59766V12.9887Z" fill="url(#paint2_linear_392_157)"/>
</g>
</g>
<mask id="mask6_392_157" style="mask-type:luminance" maskUnits="userSpaceOnUse" x="3" y="16" width="18" height="7">
<path d="M3.79883 16.7812H20.2023V22.017H3.79883V16.7812Z" fill="white"/>
</mask>
<g mask="url(#mask6_392_157)">
<mask id="mask7_392_157" style="mask-type:luminance" maskUnits="userSpaceOnUse" x="3" y="16" width="18" height="7">
<path fill-rule="evenodd" clip-rule="evenodd" d="M13.1368 20.9671L12.7646 20.6219C12.6303 20.4973 12.63 20.2951 12.7646 20.1704C12.8992 20.0459 13.1175 20.0456 13.252 20.1704L13.5652 20.4609C13.7504 20.1374 13.8345 19.7677 13.8345 19.4023C13.8345 18.3231 13.1124 17.4261 11.8894 17.4261C10.6661 17.4261 9.9436 18.3229 9.9436 19.4024C9.9436 19.8867 10.1026 20.4 10.4378 20.7779C10.8041 21.1908 11.3197 21.3785 11.8894 21.3785C12.356 21.3785 12.7899 21.2476 13.1368 20.9671ZM14.0683 20.9274L14.6415 21.459C14.776 21.5836 14.776 21.7859 14.6415 21.9106C14.5767 21.9707 14.4894 22.0039 14.3978 22.0039C14.3061 22.0039 14.2191 21.9705 14.1543 21.9105L13.6243 21.4189C13.1467 21.821 12.5397 22.0171 11.8894 22.0171C10.2847 22.0171 9.25449 20.8354 9.25449 19.4023C9.25449 18.7629 9.46394 18.119 9.90538 17.6214C10.4073 17.0555 11.1061 16.7873 11.8891 16.7873C12.6718 16.7873 13.3709 17.0555 13.8728 17.6214C14.3141 18.119 14.5238 18.7629 14.5238 19.4023C14.5238 19.9381 14.3781 20.4739 14.0683 20.9274ZM5.76425 22.0171C4.86379 22.0171 3.79883 21.4855 3.79883 20.5498C3.79883 20.3735 3.95305 20.2305 4.14335 20.2305C4.33359 20.2305 4.4879 20.3735 4.4879 20.5498C4.4879 21.1078 5.26162 21.3783 5.76425 21.3783C6.26691 21.3783 7.04084 21.1078 7.04084 20.5498C7.04084 20.4094 7.01645 20.268 6.92747 20.1509C6.70886 19.8635 6.05271 19.7752 5.70262 19.7162C4.75669 19.5568 3.79883 19.3361 3.79883 18.2542C3.79883 17.3187 4.86401 16.7871 5.76425 16.7871C6.66462 16.7871 7.72989 17.3187 7.72989 18.2542C7.72989 18.4307 7.57557 18.5737 7.38536 18.5737C7.19494 18.5737 7.04084 18.4307 7.04084 18.2542C7.04084 17.6964 6.26682 17.4259 5.76425 17.4259C5.26162 17.4259 4.4879 17.6964 4.4879 18.2542C4.4879 18.3948 4.51226 18.5363 4.60137 18.6535C4.81997 18.9409 5.476 19.0288 5.82597 19.0879C6.77181 19.2474 7.72989 19.4681 7.72989 20.5498C7.72989 21.4855 6.66462 22.0171 5.76425 22.0171ZM17.1158 21.3733H19.854C20.0442 21.3733 20.1984 21.5164 20.1984 21.6928C20.1984 21.8691 20.0438 22.0119 19.8537 22.0119H16.7714C16.5811 22.0119 16.4268 21.8691 16.4268 21.6926V17.1118C16.4268 16.9353 16.5811 16.7923 16.7714 16.7923C16.9617 16.7923 17.1158 16.9353 17.1158 17.1118V21.3733Z" fill="white"/>
</mask>
<g mask="url(#mask7_392_157)">
<path d="M3.79883 22.0171H20.1984V16.7871H3.79883V22.0171Z" fill="url(#paint3_linear_392_157)"/>
</g>
</g>
</g>
</g>
<defs>
<linearGradient id="paint0_linear_392_157" x1="18.9062" y1="4.81097" x2="18.9062" y2="-3.92017e-07" gradientUnits="userSpaceOnUse">
<stop stop-color="#CBC9C9"/>
<stop offset="0.0625" stop-color="#CBC8C8"/>
<stop offset="0.125" stop-color="#CAC8C7"/>
<stop offset="0.1875" stop-color="#C9C7C6"/>
<stop offset="0.25" stop-color="#C8C6C6"/>
<stop offset="0.3125" stop-color="#C7C5C5"/>
<stop offset="0.375" stop-color="#C6C4C4"/>
<stop offset="0.4375" stop-color="#C5C3C3"/>
<stop offset="0.5" stop-color="#C4C2C2"/>
<stop offset="0.5625" stop-color="#C3C2C1"/>
<stop offset="0.625" stop-color="#C2C1C0"/>
<stop offset="0.6875" stop-color="#C1C0BF"/>
<stop offset="0.75" stop-color="#C0BFBE"/>
<stop offset="0.8125" stop-color="#BFBEBD"/>
<stop offset="0.875" stop-color="#BEBDBD"/>
<stop offset="0.9375" stop-color="#BDBCBC"/>
<stop offset="1" stop-color="#BCBCBB"/>
</linearGradient>
<linearGradient id="paint1_linear_392_157" x1="12" y1="23.9997" x2="12" y2="14.6523" gradientUnits="userSpaceOnUse">
<stop stop-color="#F7EC00"/>
<stop offset="0.03125" stop-color="#F7EC00"/>
<stop offset="0.0625" stop-color="#F7EB00"/>
<stop offset="0.09375" stop-color="#F8EA00"/>
<stop offset="0.125" stop-color="#F8E900"/>
<stop offset="0.15625" stop-color="#F8E800"/>
<stop offset="0.1875" stop-color="#F8E701"/>
<stop offset="0.21875" stop-color="#F9E601"/>
<stop offset="0.25" stop-color="#F9E501"/>
<stop offset="0.28125" stop-color="#F9E401"/>
<stop offset="0.3125" stop-color="#F9E301"/>
<stop offset="0.34375" stop-color="#FAE201"/>
<stop offset="0.375" stop-color="#FAE101"/>
<stop offset="0.40625" stop-color="#FAE001"/>
<stop offset="0.4375" stop-color="#FADF01"/>
<stop offset="0.46875" stop-color="#FBDE01"/>
<stop offset="0.5" stop-color="#FBDD01"/>
<stop offset="0.53125" stop-color="#FBDC02"/>
<stop offset="0.5625" stop-color="#FBDB02"/>
<stop offset="0.59375" stop-color="#FCDA02"/>
<stop offset="0.625" stop-color="#FCD902"/>
<stop offset="0.65625" stop-color="#FCD802"/>
<stop offset="0.6875" stop-color="#FCD702"/>
<stop offset="0.71875" stop-color="#FDD602"/>
<stop offset="0.75" stop-color="#FDD502"/>
<stop offset="0.78125" stop-color="#FDD402"/>
<stop offset="0.8125" stop-color="#FDD302"/>
<stop offset="0.84375" stop-color="#FED202"/>
<stop offset="0.875" stop-color="#FED103"/>
<stop offset="0.90625" stop-color="#FED003"/>
<stop offset="0.9375" stop-color="#FECF03"/>
<stop offset="0.96875" stop-color="#FFCE03"/>
<stop offset="1" stop-color="#FFCD03"/>
</linearGradient>
<linearGradient id="paint2_linear_392_157" x1="11.9997" y1="12.9887" x2="11.9997" y2="2.15235" gradientUnits="userSpaceOnUse">
<stop stop-color="#8B8A8A"/>
<stop offset="0.0625" stop-color="#8B8A8A"/>
<stop offset="0.09375" stop-color="#8A8989"/>
<stop offset="0.125" stop-color="#8A8989"/>
<stop offset="0.15625" stop-color="#898888"/>
<stop offset="0.1875" stop-color="#898888"/>
<stop offset="0.21875" stop-color="#888787"/>
<stop offset="0.25" stop-color="#878787"/>
<stop offset="0.28125" stop-color="#878686"/>
<stop offset="0.3125" stop-color="#868686"/>
<stop offset="0.34375" stop-color="#868585"/>
<stop offset="0.375" stop-color="#858484"/>
<stop offset="0.40625" stop-color="#858484"/>
<stop offset="0.4375" stop-color="#848383"/>
<stop offset="0.46875" stop-color="#838383"/>
<stop offset="0.5" stop-color="#838282"/>
<stop offset="0.53125" stop-color="#828282"/>
<stop offset="0.5625" stop-color="#828181"/>
<stop offset="0.59375" stop-color="#818181"/>
<stop offset="0.625" stop-color="#808080"/>
<stop offset="0.65625" stop-color="#807F7F"/>
<stop offset="0.6875" stop-color="#7F7F7F"/>
<stop offset="0.71875" stop-color="#7F7E7E"/>
<stop offset="0.75" stop-color="#7E7E7E"/>
<stop offset="0.78125" stop-color="#7D7D7D"/>
<stop offset="0.8125" stop-color="#7D7D7D"/>
<stop offset="0.84375" stop-color="#7C7C7C"/>
<stop offset="0.875" stop-color="#7C7C7C"/>
<stop offset="0.90625" stop-color="#7B7B7B"/>
<stop offset="0.9375" stop-color="#7B7B7B"/>
<stop offset="1" stop-color="#7A7A7A"/>
</linearGradient>
<linearGradient id="paint3_linear_392_157" x1="11.9986" y1="22.0171" x2="11.9986" y2="16.7871" gradientUnits="userSpaceOnUse">
<stop stop-color="#8B8A8A"/>
<stop offset="0.25" stop-color="#8B8A8A"/>
<stop offset="0.3125" stop-color="#8B8A8A"/>
<stop offset="0.34375" stop-color="#8B8A8A"/>
<stop offset="0.359375" stop-color="#8A8989"/>
<stop offset="0.375" stop-color="#898888"/>
<stop offset="0.390625" stop-color="#888787"/>
<stop offset="0.40625" stop-color="#888787"/>
<stop offset="0.421875" stop-color="#878686"/>
<stop offset="0.4375" stop-color="#868585"/>
<stop offset="0.453125" stop-color="#858585"/>
<stop offset="0.46875" stop-color="#848484"/>
<stop offset="0.484375" stop-color="#848383"/>
<stop offset="0.5" stop-color="#838282"/>
<stop offset="0.515625" stop-color="#828282"/>
<stop offset="0.53125" stop-color="#818181"/>
<stop offset="0.546875" stop-color="#818080"/>
<stop offset="0.5625" stop-color="#807F7F"/>
<stop offset="0.578125" stop-color="#7F7F7F"/>
<stop offset="0.59375" stop-color="#7E7E7E"/>
<stop offset="0.609375" stop-color="#7D7D7D"/>
<stop offset="0.625" stop-color="#7D7D7D"/>
<stop offset="0.640625" stop-color="#7C7C7C"/>
<stop offset="0.65625" stop-color="#7B7B7B"/>
<stop offset="0.6875" stop-color="#7A7A7A"/>
<stop offset="0.75" stop-color="#7A7A7A"/>
<stop offset="1" stop-color="#7A7A7A"/>
</linearGradient>
<clipPath id="clip0_392_157">
<rect width="24" height="24" fill="white"/>
</clipPath>
<clipPath id="clip1_392_157">
<rect width="24" height="24" fill="white"/>
</clipPath>
</defs>
</svg>
